<svg width="20" height="20" viewBox="0 0 20 20" fill="none" xmlns="http://www.w3.org/2000/svg">
<path fill-rule="evenodd" clip-rule="evenodd" d="M7.86668 3.15251C7.97719 3.15251 8.08317 3.19641 8.16131 3.27455C8.23945 3.35269 8.28335 3.45867 8.28335 3.56918V6.31918C8.28335 6.42969 8.23945 6.53567 8.16131 6.61381C8.08317 6.69195 7.97719 6.73585 7.86668 6.73585C7.75617 6.73585 7.65019 6.69195 7.57205 6.61381C7.49391 6.53567 7.45001 6.42969 7.45001 6.31918V3.56918C7.45001 3.45867 7.49391 3.35269 7.57205 3.27455C7.65019 3.19641 7.75617 3.15251 7.86668 3.15251Z" fill="#3CCB5B"/>
<path fill-rule="evenodd" clip-rule="evenodd" d="M4.90835 5.79375C5.37918 5.68125 5.8596 5.76667 6.35835 6.02417C6.7646 6.23458 7.05293 6.33083 7.27751 6.37708C7.50168 6.42375 7.68001 6.42458 7.89543 6.42458V7.25792H7.8871C7.6721 7.25792 7.42043 7.25792 7.10876 7.19333C6.79335 7.12792 6.43293 7.00083 5.97543 6.76417C5.6096 6.57542 5.33376 6.54875 5.1021 6.60417C4.85876 6.6625 4.60168 6.825 4.30543 7.13083C3.62543 7.83417 3.41418 8.55833 3.34043 9.115C3.29876 9.8 3.42251 11.1525 4.03543 12.4746C4.24376 12.9246 4.5396 13.5454 4.90043 14.0317C5.08043 14.2742 5.26126 14.4608 5.43501 14.5758C5.60376 14.6871 5.74376 14.7175 5.87085 14.6958C7.1721 14.4717 7.41668 14.4662 7.67043 14.4662H8.10251V15.2996H7.65835C7.48251 15.2996 7.27501 15.2996 6.01251 15.5171C5.62085 15.5846 5.26793 15.4642 4.97585 15.2712C4.68876 15.0817 4.44085 14.8104 4.23126 14.5283C3.81251 13.9646 3.48501 13.2683 3.2796 12.825C2.5971 11.3533 2.45793 9.85125 2.5096 9.04833L2.51085 9.035L2.51251 9.02167C2.60085 8.33667 2.86418 7.42208 3.70668 6.55167C4.05876 6.1875 4.4496 5.90333 4.90876 5.79333L4.90835 5.79375Z" fill="#3CCB5B"/>
<path fill-rule="evenodd" clip-rule="evenodd" d="M6.10001 4.75417C6.72334 5.35042 7.06126 6.07334 7.06126 6.63334C7.06126 6.74385 7.10516 6.84983 7.1833 6.92797C7.26144 7.00611 7.36742 7.05 7.47793 7.05C7.58843 7.05 7.69441 7.00611 7.77255 6.92797C7.85069 6.84983 7.89459 6.74385 7.89459 6.63334C7.89459 5.77917 7.40793 4.85209 6.67584 4.15167C5.93501 3.44334 4.89293 2.91667 3.70668 2.91667C3.59617 2.91667 3.49019 2.96057 3.41205 3.03871C3.33391 3.11685 3.29001 3.22283 3.29001 3.33334C3.29001 3.44385 3.33391 3.54983 3.41205 3.62797C3.49019 3.70611 3.59617 3.75001 3.70668 3.75001C4.64168 3.75001 5.48501 4.16625 6.09959 4.75417H6.10001Z" fill="#3CCB5B"/>
<path fill-rule="evenodd" clip-rule="evenodd" d="M3.57251 2.92061C3.68213 2.90694 3.79269 2.93736 3.87989 3.00518C3.96708 3.073 4.02378 3.17267 4.03751 3.28228C4.24251 4.91978 5.68126 5.78228 6.84335 6.24686C6.94595 6.28791 7.02805 6.36804 7.07157 6.46963C7.11509 6.57121 7.11648 6.68592 7.07543 6.78853C7.03438 6.89113 6.95424 6.97323 6.85266 7.01675C6.75108 7.06027 6.63637 7.06166 6.53376 7.02061C5.33835 6.54269 3.47751 5.51894 3.21085 3.38561C3.19718 3.27599 3.22759 3.16543 3.29541 3.07823C3.36323 2.99104 3.4629 2.93434 3.57251 2.92061ZM10.7342 5.79311C10.2542 5.68311 9.76168 5.76561 9.24668 6.02144C8.82168 6.23228 8.51876 6.32978 8.28126 6.37686C8.04376 6.42394 7.85543 6.42478 7.63126 6.42478C7.52076 6.42478 7.41477 6.46867 7.33663 6.54681C7.25849 6.62495 7.2146 6.73094 7.2146 6.84144C7.2146 6.95195 7.25849 7.05793 7.33663 7.13607C7.41477 7.21421 7.52076 7.25811 7.63126 7.25811H7.63918C7.86293 7.25811 8.12251 7.25811 8.44335 7.19436C8.76876 7.12978 9.14168 7.00353 9.61668 6.76769C10.0017 6.57686 10.2967 6.54769 10.5483 6.60519C10.8092 6.66519 11.0804 6.83103 11.3888 7.13728C12.1038 7.84686 12.32 8.57561 12.3946 9.13061C12.4108 9.23882 12.4689 9.33631 12.5564 9.40204C12.6438 9.46776 12.7537 9.49645 12.8621 9.48189C12.9705 9.46734 13.0689 9.41072 13.1359 9.32425C13.203 9.23779 13.2333 9.12842 13.2204 9.01978C13.1279 8.33103 12.8521 7.41561 11.9758 6.54561C11.6088 6.18144 11.205 5.90061 10.7342 5.79311ZM11.1279 14.2835C11.0885 14.2456 11.042 14.2158 10.991 14.1958C10.9401 14.1758 10.8857 14.1661 10.831 14.1671C10.7763 14.1682 10.7223 14.18 10.6722 14.2019C10.622 14.2238 10.5767 14.2554 10.5388 14.2948C10.2233 14.6223 9.95835 14.7323 9.73418 14.6956C8.37918 14.4714 8.12585 14.4664 7.86543 14.4664C7.75492 14.4664 7.64894 14.5103 7.5708 14.5885C7.49266 14.6666 7.44876 14.7726 7.44876 14.8831C7.44876 14.9936 7.49266 15.0996 7.5708 15.1777C7.64894 15.2559 7.75492 15.2998 7.86543 15.2998H7.8771C8.06335 15.2998 8.28001 15.2998 9.59793 15.5177C10.2321 15.6227 10.7583 15.2681 11.1392 14.8727C11.1772 14.8333 11.2071 14.7867 11.2271 14.7357C11.2471 14.6848 11.2568 14.6303 11.2558 14.5756C11.2547 14.5208 11.2429 14.4668 11.221 14.4166C11.199 14.3664 11.1674 14.3215 11.1279 14.2835Z" fill="#3CCB5B"/>
<path fill-rule="evenodd" clip-rule="evenodd" d="M13.6042 6.70959C13.1863 7.46375 13.0779 8.255 13.2442 8.78959C13.2604 8.84184 13.2662 8.89679 13.2613 8.95128C13.2563 9.00578 13.2406 9.05876 13.2151 9.1072C13.1897 9.15564 13.1549 9.1986 13.1129 9.23361C13.0708 9.26862 13.0223 9.295 12.97 9.31125C12.9178 9.32751 12.8628 9.33331 12.8083 9.32832C12.7538 9.32334 12.7009 9.30767 12.6524 9.28221C12.604 9.25675 12.561 9.222 12.526 9.17994C12.491 9.13789 12.4646 9.08934 12.4484 9.03709C12.1946 8.22084 12.3846 7.19125 12.8754 6.30542C13.3725 5.40875 14.2113 4.59667 15.3442 4.24417C15.3964 4.22792 15.4514 4.22212 15.5059 4.2271C15.5604 4.23209 15.6134 4.24776 15.6618 4.27321C15.7102 4.29867 15.7532 4.33342 15.7882 4.37548C15.8232 4.41754 15.8496 4.46608 15.8659 4.51834C15.8821 4.57059 15.8879 4.62554 15.8829 4.68003C15.8779 4.73453 15.8623 4.78751 15.8368 4.83595C15.8114 4.88439 15.7766 4.92735 15.7345 4.96236C15.6925 4.99737 15.6439 5.02375 15.5917 5.04C14.6988 5.3175 14.0167 5.96584 13.6042 6.70959Z" fill="#3CCB5B"/>
<path fill-rule="evenodd" clip-rule="evenodd" d="M14.4663 7.24125C13.9796 7.95375 13.3213 8.405 12.7692 8.49667C12.7145 8.50481 12.662 8.52376 12.6147 8.55239C12.5675 8.58103 12.5264 8.61878 12.4938 8.66346C12.4613 8.70813 12.4379 8.75884 12.4252 8.81261C12.4124 8.86639 12.4105 8.92217 12.4195 8.9767C12.4285 9.03123 12.4483 9.08343 12.4777 9.13024C12.507 9.17706 12.5454 9.21756 12.5906 9.2494C12.6358 9.28123 12.6869 9.30376 12.7408 9.31566C12.7948 9.32757 12.8506 9.32862 12.905 9.31875C13.7479 9.17916 14.5829 8.5475 15.1542 7.71125C15.7325 6.86458 16.0821 5.75041 15.8883 4.58C15.8794 4.52599 15.86 4.47427 15.831 4.42779C15.8021 4.38131 15.7644 4.34097 15.7199 4.30909C15.6754 4.27721 15.625 4.25441 15.5717 4.24198C15.5184 4.22955 15.4632 4.22775 15.4092 4.23666C15.3552 4.24558 15.3034 4.26505 15.257 4.29396C15.2105 4.32287 15.1702 4.36065 15.1383 4.40514C15.1064 4.44964 15.0836 4.49997 15.0712 4.55328C15.0587 4.60659 15.0569 4.66183 15.0658 4.71583C15.2188 5.63833 14.9458 6.53875 14.4658 7.24083L14.4663 7.24125Z" fill="#3CCB5B"/>
<path fill-rule="evenodd" clip-rule="evenodd" d="M13.2417 9.58333C12.9654 9.58333 12.7004 9.69308 12.5051 9.88843C12.3097 10.0838 12.2 10.3487 12.2 10.625C12.2 10.9013 12.3097 11.1662 12.5051 11.3616C12.7004 11.5569 12.9654 11.6667 13.2417 11.6667C13.5179 11.6667 13.7829 11.5569 13.9782 11.3616C14.1736 11.1662 14.2833 10.9013 14.2833 10.625C14.2833 10.3487 14.1736 10.0838 13.9782 9.88843C13.7829 9.69308 13.5179 9.58333 13.2417 9.58333ZM11.3667 10.625C11.3667 10.3788 11.4152 10.135 11.5094 9.90747C11.6036 9.67998 11.7417 9.47328 11.9158 9.29917C12.09 9.12507 12.2967 8.98695 12.5241 8.89273C12.7516 8.7985 12.9954 8.75 13.2417 8.75C13.4879 8.75 13.7317 8.7985 13.9592 8.89273C14.1867 8.98695 14.3934 9.12507 14.5675 9.29917C14.7416 9.47328 14.8797 9.67998 14.9739 9.90747C15.0682 10.135 15.1167 10.3788 15.1167 10.625C15.1167 11.1223 14.9191 11.5992 14.5675 11.9508C14.2159 12.3025 13.7389 12.5 13.2417 12.5C12.7444 12.5 12.2675 12.3025 11.9158 11.9508C11.5642 11.5992 11.3667 11.1223 11.3667 10.625Z" fill="#3CCB5B"/>
<path fill-rule="evenodd" clip-rule="evenodd" d="M15.7688 7.53751C16.2368 7.70544 16.619 8.05242 16.8312 8.50211C17.0434 8.9518 17.0683 9.46737 16.9004 9.93543C16.8819 9.98694 16.8535 10.0343 16.8167 10.0748C16.78 10.1154 16.7356 10.1483 16.6861 10.1716C16.6366 10.195 16.583 10.2084 16.5283 10.211C16.4737 10.2137 16.419 10.2056 16.3675 10.1871C16.316 10.1686 16.2686 10.1402 16.2281 10.1034C16.1876 10.0666 16.1547 10.0222 16.1313 9.97276C16.1079 9.92327 16.0945 9.86967 16.0919 9.81501C16.0892 9.76034 16.0974 9.70569 16.1158 9.65418C16.2092 9.39416 16.1955 9.10769 16.0776 8.8578C15.9598 8.6079 15.7475 8.41506 15.4875 8.32168C15.2275 8.2283 14.941 8.24204 14.6911 8.35987C14.4412 8.47771 14.2484 8.68999 14.155 8.95001C14.1158 9.05141 14.0385 9.13346 13.9396 9.17865C13.8407 9.22384 13.7281 9.22859 13.6257 9.19188C13.5234 9.15518 13.4395 9.07993 13.3918 8.98219C13.3442 8.88445 13.3367 8.77198 13.3708 8.66876C13.5388 8.2008 13.8859 7.81873 14.3355 7.60659C14.7852 7.39444 15.3008 7.3696 15.7688 7.53751Z" fill="#3CCB5B"/>
<path fill-rule="evenodd" clip-rule="evenodd" d="M15.1054 9.65668C15.532 9.53432 15.9881 9.5672 16.3927 9.74946C16.7974 9.93172 17.1242 10.2515 17.3153 10.6521C17.5063 11.0526 17.5491 11.508 17.4361 11.9371C17.323 12.3662 17.0615 12.7414 16.6979 12.9958C16.6531 13.0285 16.6022 13.0518 16.5483 13.0646C16.4943 13.0773 16.4384 13.0791 16.3837 13.07C16.3291 13.0608 16.2768 13.0408 16.2299 13.0112C16.1831 12.9816 16.1426 12.9429 16.1109 12.8974C16.0792 12.852 16.0568 12.8006 16.0452 12.7464C16.0336 12.6922 16.0329 12.6362 16.0432 12.5818C16.0535 12.5273 16.0745 12.4754 16.1051 12.4292C16.1357 12.383 16.1752 12.3433 16.2213 12.3125C16.3359 12.2323 16.4333 12.1298 16.5075 12.0112C16.5816 11.8926 16.6312 11.7602 16.6531 11.622C16.675 11.4838 16.6689 11.3426 16.635 11.2069C16.6011 11.0711 16.5403 10.9435 16.4561 10.8318C16.3718 10.7201 16.2659 10.6265 16.1447 10.5566C16.0235 10.4866 15.8895 10.4419 15.7506 10.4249C15.6117 10.4079 15.4708 10.4191 15.3364 10.4578C15.2019 10.4965 15.0766 10.5618 14.9679 10.65C14.9255 10.6845 14.8766 10.7104 14.8242 10.726C14.7717 10.7417 14.7167 10.7468 14.6623 10.7412C14.6079 10.7356 14.5551 10.7193 14.5069 10.6933C14.4588 10.6673 14.4162 10.6321 14.3817 10.5896C14.3472 10.5471 14.3213 10.4983 14.3057 10.4458C14.29 10.3934 14.2849 10.3384 14.2905 10.284C14.2961 10.2295 14.3124 10.1767 14.3384 10.1286C14.3644 10.0804 14.3996 10.0379 14.4421 10.0033C14.6377 9.84439 14.8633 9.72649 15.1054 9.65668ZM11.575 12.0833C11.2987 12.0833 11.0338 12.1931 10.8384 12.3884C10.6431 12.5838 10.5333 12.8487 10.5333 13.125C10.5333 13.4013 10.6431 13.6662 10.8384 13.8616C11.0338 14.0569 11.2987 14.1667 11.575 14.1667C11.8513 14.1667 12.1162 14.0569 12.3116 13.8616C12.5069 13.6662 12.6167 13.4013 12.6167 13.125C12.6167 12.8487 12.5069 12.5838 12.3116 12.3884C12.1162 12.1931 11.8513 12.0833 11.575 12.0833ZM9.70001 13.125C9.70001 12.6277 9.89756 12.1508 10.2492 11.7992C10.6008 11.4476 11.0777 11.25 11.575 11.25C12.0723 11.25 12.5492 11.4476 12.9008 11.7992C13.2525 12.1508 13.45 12.6277 13.45 13.125C13.45 13.6223 13.2525 14.0992 12.9008 14.4508C12.5492 14.8025 12.0723 15 11.575 15C11.0777 15 10.6008 14.8025 10.2492 14.4508C9.89756 14.0992 9.70001 13.6223 9.70001 13.125Z" fill="#3CCB5B"/>
<path fill-rule="evenodd" clip-rule="evenodd" d="M14.9084 12.0833C14.6321 12.0833 14.3671 12.1931 14.1718 12.3884C13.9764 12.5838 13.8667 12.8487 13.8667 13.125C13.8667 13.4013 13.9764 13.6662 14.1718 13.8616C14.3671 14.0569 14.6321 14.1667 14.9084 14.1667C15.1846 14.1667 15.4496 14.0569 15.6449 13.8616C15.8403 13.6662 15.95 13.4013 15.95 13.125C15.95 12.8487 15.8403 12.5838 15.6449 12.3884C15.4496 12.1931 15.1846 12.0833 14.9084 12.0833ZM13.0334 13.125C13.0334 12.6277 13.2309 12.1508 13.5825 11.7992C13.9342 11.4475 14.4111 11.25 14.9084 11.25C15.4056 11.25 15.8825 11.4475 16.2342 11.7992C16.5858 12.1508 16.7834 12.6277 16.7834 13.125C16.7834 13.6223 16.5858 14.0992 16.2342 14.4508C15.8825 14.8025 15.4056 15 14.9084 15C14.4111 15 13.9342 14.8025 13.5825 14.4508C13.2309 14.0992 13.0334 13.6223 13.0334 13.125Z" fill="#3CCB5B"/>
<path fill-rule="evenodd" clip-rule="evenodd" d="M13.2417 14.5833C12.9654 14.5833 12.7004 14.6931 12.5051 14.8884C12.3097 15.0838 12.2 15.3487 12.2 15.625C12.2 15.9013 12.3097 16.1662 12.5051 16.3616C12.7004 16.5569 12.9654 16.6667 13.2417 16.6667C13.5179 16.6667 13.7829 16.5569 13.9782 16.3616C14.1736 16.1662 14.2833 15.9013 14.2833 15.625C14.2833 15.3487 14.1736 15.0838 13.9782 14.8884C13.7829 14.6931 13.5179 14.5833 13.2417 14.5833ZM11.3667 15.625C11.3667 15.3788 11.4152 15.135 11.5094 14.9075C11.6036 14.68 11.7417 14.4733 11.9158 14.2992C12.09 14.1251 12.2967 13.987 12.5241 13.8927C12.7516 13.7985 12.9954 13.75 13.2417 13.75C13.4879 13.75 13.7317 13.7985 13.9592 13.8927C14.1867 13.987 14.3934 14.1251 14.5675 14.2992C14.7416 14.4733 14.8797 14.68 14.9739 14.9075C15.0682 15.135 15.1167 15.3788 15.1167 15.625C15.1167 16.1223 14.9191 16.5992 14.5675 16.9508C14.2159 17.3025 13.7389 17.5 13.2417 17.5C12.7444 17.5 12.2675 17.3025 11.9158 16.9508C11.5642 16.5992 11.3667 16.1223 11.3667 15.625Z" fill="#3CCB5B"/>
<path fill-rule="evenodd" clip-rule="evenodd" d="M15.7642 14.1525C15.7825 14.101 15.8109 14.0535 15.8476 14.0129C15.8843 13.9724 15.9287 13.9394 15.9781 13.9159C16.0276 13.8925 16.0811 13.879 16.1358 13.8763C16.1905 13.8735 16.2451 13.8816 16.2967 13.9C16.561 13.9944 16.8008 14.1469 16.9983 14.3463C17.1958 14.5457 17.346 14.787 17.4379 15.0522C17.5298 15.3174 17.5609 15.5999 17.529 15.8787C17.4972 16.1576 17.4031 16.4257 17.2538 16.6634C17.1044 16.901 16.9036 17.1021 16.6662 17.2518C16.4288 17.4015 16.1608 17.496 15.882 17.5283C15.6032 17.5607 15.3207 17.53 15.0553 17.4385C14.7899 17.3471 14.5485 17.1972 14.3488 17C14.3088 16.9618 14.2768 16.916 14.2547 16.8653C14.2326 16.8147 14.2208 16.7601 14.22 16.7048C14.2192 16.6495 14.2295 16.5947 14.2501 16.5434C14.2707 16.4921 14.3013 16.4454 14.3402 16.4061C14.379 16.3667 14.4253 16.3355 14.4763 16.3142C14.5273 16.293 14.5821 16.282 14.6374 16.2821C14.6927 16.2822 14.7474 16.2933 14.7983 16.3148C14.8493 16.3362 14.8955 16.3676 14.9342 16.4071C15.0451 16.5166 15.1792 16.5999 15.3266 16.6507C15.4741 16.7015 15.631 16.7186 15.7859 16.7007C15.9408 16.6827 16.0897 16.6303 16.2216 16.5471C16.3535 16.464 16.465 16.3523 16.548 16.2203C16.631 16.0883 16.6833 15.9393 16.701 15.7844C16.7187 15.6295 16.7015 15.4726 16.6505 15.3252C16.5995 15.1779 16.5161 15.0439 16.4064 14.933C16.2967 14.8222 16.1635 14.7375 16.0167 14.685C15.9651 14.6666 15.9177 14.6383 15.8771 14.6016C15.8365 14.5648 15.8036 14.5205 15.7801 14.4711C15.7567 14.4216 15.7432 14.368 15.7405 14.3134C15.7377 14.2587 15.7458 14.204 15.7642 14.1525Z" fill="#3CCB5B"/>
</svg>
