<svg width="15" height="15" viewBox="0 0 15 15" fill="none" xmlns="http://www.w3.org/2000/svg">
<path d="M0.833336 15C0.597225 15 0.39917 14.92 0.239169 14.76C0.0791695 14.6 -0.000552672 14.4022 2.88351e-06 14.1667C2.88351e-06 13.9306 0.080003 13.7325 0.240003 13.5725C0.400003 13.4125 0.597781 13.3328 0.833336 13.3333H1.66667V8.33334H0.833336C0.597225 8.33334 0.39917 8.25334 0.239169 8.09334C0.0791695 7.93334 -0.000552672 7.73556 2.88351e-06 7.5C2.88351e-06 7.26389 0.080003 7.06584 0.240003 6.90584C0.400003 6.74584 0.597781 6.66611 0.833336 6.66667H1.66667V1.66667H0.833336C0.597225 1.66667 0.39917 1.58667 0.239169 1.42667C0.0791695 1.26667 -0.000552672 1.06889 2.88351e-06 0.833336C2.88351e-06 0.597225 0.080003 0.39917 0.240003 0.239169C0.400003 0.0791695 0.597781 -0.000552672 0.833336 2.88351e-06H14.1667C14.4028 2.88351e-06 14.6008 0.080003 14.7608 0.240003C14.9208 0.400003 15.0006 0.597781 15 0.833336C15 1.06945 14.92 1.2675 14.76 1.4275C14.6 1.5875 14.4022 1.66723 14.1667 1.66667H13.3333V6.66667H14.1667C14.4028 6.66667 14.6008 6.74667 14.7608 6.90667C14.9208 7.06667 15.0006 7.26445 15 7.5C15 7.73611 14.92 7.93417 14.76 8.09417C14.6 8.25417 14.4022 8.33389 14.1667 8.33334H13.3333V13.3333H14.1667C14.4028 13.3333 14.6008 13.4133 14.7608 13.5733C14.9208 13.7333 15.0006 13.9311 15 14.1667C15 14.4028 14.92 14.6008 14.76 14.7608C14.6 14.9208 14.4022 15.0006 14.1667 15H0.833336ZM3.33334 13.3333H11.6667V8.33334C11.4306 8.33334 11.2325 8.25334 11.0725 8.09334C10.9125 7.93334 10.8328 7.73556 10.8333 7.5C10.8333 7.26389 10.9133 7.06584 11.0733 6.90584C11.2333 6.74584 11.4311 6.66611 11.6667 6.66667V1.66667H3.33334V6.66667C3.56945 6.66667 3.7675 6.74667 3.9275 6.90667C4.0875 7.06667 4.16722 7.26445 4.16667 7.5C4.16667 7.73611 4.08667 7.93417 3.92667 8.09417C3.76667 8.25417 3.56889 8.33389 3.33334 8.33334V13.3333ZM7.5 10.8333C8.19445 10.8333 8.78473 10.5936 9.27084 10.1142C9.75695 9.63473 10 9.055 10 8.375C10 7.83334 9.84361 7.36806 9.53084 6.97917C9.21806 6.59028 8.54111 5.79167 7.5 4.58334C6.45834 5.77778 5.78111 6.57306 5.46834 6.96917C5.15556 7.36528 4.99945 7.83389 5 8.375C5 9.05556 5.24306 9.63528 5.72917 10.1142C6.21528 10.5931 6.80556 10.8328 7.5 10.8333Z" fill="#3CCB5B"/>
</svg>
