<svg width="16" height="17" viewBox="0 0 16 17" fill="none" xmlns="http://www.w3.org/2000/svg">
<g clip-path="url(#clip0_25_2754)">
<path d="M11.1059 2.77577H8.84874C8.44088 2.77713 8.45614 3.41361 8.84874 3.40987H11.1059V3.73525H8.84874C8.44315 3.73151 8.45809 4.36765 8.84874 4.36935H11.1059V4.70187H8.84874C8.44315 4.70187 8.45809 5.33767 8.84874 5.33597H11.1059V5.65285H8.84874C8.45159 5.65591 8.45809 6.29239 8.84874 6.29443H11.1059V6.61199H8.84874C8.45159 6.61063 8.44997 7.24609 8.84874 7.24609H11.1059V7.56297H8.84874C8.45159 7.56433 8.44997 8.20047 8.84874 8.19741H11.1059V8.52211H8.84874C8.45159 8.51837 8.44997 9.15383 8.84874 9.15621H11.1059V9.47241H8.84874C8.45159 9.47207 8.45809 10.1089 8.84874 10.1068H11.1059V16.2809C11.1072 17.2217 12.4721 17.2047 12.476 16.2809V1.83261C12.4721 1.40285 12.135 0.859526 11.5804 0.857826H8.84874C8.44088 0.858166 8.45614 1.49465 8.84874 1.49193L11.1059 1.49975V1.81595H8.84874C8.44152 1.81391 8.45679 2.45005 8.84874 2.45039H11.1059V2.77577ZM8.69351 13.7217C8.69222 12.6235 7.60502 11.4424 6.30611 12.2074V8.00701L5.46603 1.07951C5.4485 0.896246 5.3001 0.853066 5.2004 0.850006C5.09747 0.853066 4.89126 0.896246 4.86886 1.07951L4.033 8.00701V12.2074C2.73409 11.4424 1.68197 12.631 1.68164 13.7132C1.68197 14.6761 2.38987 15.4669 3.34783 15.4646C4.31292 15.4669 5.00719 14.5806 5.00719 13.7132V9.35001H5.33192V13.7132C5.33192 14.6843 6.05022 15.403 6.8484 15.4486C6.83509 15.981 7.00103 16.7406 7.31342 17.0418C7.67971 17.3954 8.11582 16.9432 7.9369 16.575C7.76414 16.2323 7.59463 16.0293 7.73232 15.281C8.30774 15.0022 8.69222 14.4153 8.69351 13.7217ZM3.38484 14.5857C3.16588 14.5857 2.95587 14.4946 2.80104 14.3325C2.64621 14.1704 2.55922 13.9505 2.55922 13.7212C2.55922 13.4919 2.64621 13.2721 2.80104 13.11C2.95587 12.9478 3.16588 12.8568 3.38484 12.8568C3.83492 12.8595 4.20154 13.2461 4.20479 13.7217C4.20386 13.9496 4.11734 14.168 3.96392 14.3296C3.8105 14.4913 3.60249 14.5833 3.38484 14.5857ZM6.1681 13.7217C6.16885 13.4936 6.25533 13.275 6.40883 13.1131C6.56233 12.9513 6.77052 12.8592 6.98836 12.8568C7.20628 12.8588 7.41463 12.9508 7.56815 13.1128C7.72167 13.2747 7.80797 13.4935 7.8083 13.7217C7.80797 13.9498 7.72164 14.1685 7.56809 14.3303C7.41454 14.4921 7.20619 14.5839 6.98836 14.5857C6.77058 14.5836 6.56235 14.4918 6.4088 14.33C6.25526 14.1683 6.16877 13.9498 6.1681 13.7217Z" fill="#3CCB5B"/>
</g>
<defs>
<clipPath id="clip0_25_2754">
<rect width="16" height="17" fill="white"/>
</clipPath>
</defs>
</svg>
