<svg width="24" height="24" viewBox="0 0 24 24" fill="none" xmlns="http://www.w3.org/2000/svg">
<g id="ic:outline-photo-camera">
<path id="Vector" d="M13.514 4.9L15.2525 6.8H19.1V18.2H3.9V6.8H7.7475L9.486 4.9H13.514ZM14.35 3H8.65L6.9115 4.9H3.9C2.855 4.9 2 5.755 2 6.8V18.2C2 19.245 2.855 20.1 3.9 20.1H19.1C20.145 20.1 21 19.245 21 18.2V6.8C21 5.755 20.145 4.9 19.1 4.9H16.0885L14.35 3ZM11.5 9.65C13.0675 9.65 14.35 10.9325 14.35 12.5C14.35 14.0675 13.0675 15.35 11.5 15.35C9.9325 15.35 8.65 14.0675 8.65 12.5C8.65 10.9325 9.9325 9.65 11.5 9.65ZM11.5 7.75C8.878 7.75 6.75 9.878 6.75 12.5C6.75 15.122 8.878 17.25 11.5 17.25C14.122 17.25 16.25 15.122 16.25 12.5C16.25 9.878 14.122 7.75 11.5 7.75Z" fill="#3CCB5B"/>
</g>
</svg>
