<svg width="20" height="20" viewBox="0 0 20 20" fill="none" xmlns="http://www.w3.org/2000/svg">
<path d="M6.01366 2C6.34616 2 6.66366 2.13333 6.89699 2.36917L8.93866 4.43333V3.45833C8.93866 2.65333 9.59199 2 10.397 2H13.3137C14.1187 2 14.772 2.65333 14.772 3.45833V5.75H15.9153C16.003 5.74997 16.0898 5.7684 16.1699 5.8041C16.25 5.8398 16.3218 5.89197 16.3804 5.95721C16.439 6.02245 16.4833 6.0993 16.5103 6.18277C16.5372 6.26624 16.5463 6.35445 16.537 6.44167L15.3062 17.8267C15.2564 18.2864 15.0386 18.7115 14.6945 19.0203C14.3504 19.3292 13.9044 19.5 13.442 19.5H6.10199C5.63976 19.4998 5.19389 19.3289 4.84999 19.02C4.50608 18.7112 4.28837 18.2862 4.23866 17.8267L3.00366 6.44333C2.99417 6.35605 3.00319 6.26775 3.03011 6.18418C3.05703 6.10061 3.10126 6.02365 3.15991 5.95832C3.21856 5.89298 3.29032 5.84074 3.37051 5.80499C3.4507 5.76924 3.53752 5.75079 3.62532 5.75083H4.77199V3.24167C4.77199 2.55583 5.32782 2 6.01366 2ZM13.522 5.75V3.45833C13.522 3.40308 13.5 3.35009 13.461 3.31102C13.4219 3.27195 13.3689 3.25 13.3137 3.25H10.397C10.3417 3.25 10.2887 3.27195 10.2497 3.31102C10.2106 3.35009 10.1887 3.40308 10.1887 3.45833V5.75H13.522ZM6.02199 3.26167V5.75H8.48282L6.02199 3.26167ZM5.48032 17.6917C5.49697 17.8449 5.56965 17.9866 5.68439 18.0895C5.79914 18.1924 5.94786 18.2492 6.10199 18.2492H13.442C13.5961 18.249 13.7447 18.1919 13.8593 18.0889C13.9739 17.9858 14.0464 17.8441 14.0628 17.6908L15.2195 7H4.32199L5.48032 17.6917ZM9.59866 9.84C9.61768 9.81147 9.64346 9.78807 9.67369 9.77189C9.70393 9.75571 9.73769 9.74724 9.77199 9.74724C9.80628 9.74724 9.84005 9.75571 9.87028 9.77189C9.90052 9.78807 9.9263 9.81147 9.94532 9.84L10.5028 10.6733C10.5972 10.8057 10.7394 10.8962 10.8994 10.9254C11.0593 10.9547 11.2243 10.9205 11.3595 10.83C11.4946 10.7396 11.5891 10.6 11.6231 10.441C11.657 10.282 11.6276 10.116 11.5412 9.97833L10.9845 9.145C10.8512 8.94562 10.6709 8.78217 10.4594 8.66914C10.2479 8.5561 10.0118 8.49696 9.77199 8.49696C9.53218 8.49696 9.29608 8.5561 9.08458 8.66914C8.87309 8.78217 8.69273 8.94562 8.55949 9.145L8.00282 9.97833C7.91638 10.116 7.887 10.282 7.92092 10.441C7.95484 10.6 8.0494 10.7396 8.18452 10.83C8.31963 10.9205 8.48468 10.9547 8.64462 10.9254C8.80456 10.8962 8.9468 10.8057 9.04116 10.6733L9.59949 9.84H9.59866ZM7.80199 11.6667C7.87246 11.7089 7.93392 11.7646 7.98283 11.8307C8.03175 11.8967 8.06717 11.9717 8.08706 12.0514C8.10695 12.1311 8.11093 12.214 8.09876 12.2953C8.08659 12.3765 8.05852 12.4546 8.01616 12.525L7.71282 13.03C7.67493 13.0932 7.65449 13.1654 7.6536 13.2391C7.6527 13.3128 7.67138 13.3855 7.70773 13.4496C7.74408 13.5137 7.79679 13.5671 7.8605 13.6042C7.9242 13.6413 7.9966 13.6608 8.07032 13.6608H8.73032C8.89608 13.6608 9.05505 13.7267 9.17226 13.8439C9.28947 13.9611 9.35532 14.1201 9.35532 14.2858C9.35532 14.4516 9.28947 14.6106 9.17226 14.7278C9.05505 14.845 8.89608 14.9108 8.73032 14.9108H8.07032C6.77449 14.9108 5.97449 13.4975 6.64116 12.3867L6.94449 11.8808C7.02981 11.7387 7.16808 11.6363 7.32889 11.5962C7.4897 11.556 7.65987 11.5814 7.80199 11.6667ZM11.5295 12.5242C11.4873 12.4537 11.4594 12.3757 11.4474 12.2945C11.4353 12.2133 11.4394 12.1305 11.4594 12.0509C11.4794 11.9713 11.5148 11.8963 11.5637 11.8304C11.6126 11.7645 11.6741 11.7089 11.7445 11.6667C11.8149 11.6245 11.893 11.5966 11.9742 11.5845C12.0554 11.5725 12.1381 11.5766 12.2178 11.5966C12.2974 11.6165 12.3723 11.652 12.4382 11.7009C12.5042 11.7498 12.5598 11.8112 12.602 11.8817L12.9053 12.3875C13.5703 13.4983 12.7703 14.9108 11.4753 14.9108H10.8137C10.6479 14.9108 10.4889 14.845 10.3717 14.7278C10.2545 14.6106 10.1887 14.4516 10.1887 14.2858C10.1887 14.1201 10.2545 13.9611 10.3717 13.8439C10.4889 13.7267 10.6479 13.6608 10.8137 13.6608H11.4753C11.549 13.6608 11.6214 13.6413 11.6852 13.6042C11.7488 13.5671 11.8016 13.5137 11.8379 13.4496C11.8743 13.3855 11.8929 13.3128 11.892 13.2391C11.8912 13.1654 11.8707 13.0932 11.8328 13.03L11.5295 12.5242Z" fill="#3CCB5B"/>
</svg>
