<svg width="18" height="18" viewBox="0 0 18 18" fill="none" xmlns="http://www.w3.org/2000/svg">
<g clip-path="url(#clip0_22_3837)">
<path d="M6.6 13.7916L7.0992 13.458C7.04432 13.376 6.97005 13.3087 6.88298 13.2623C6.7959 13.2158 6.6987 13.1915 6.6 13.1916V13.7916ZM9 17.3892L8.5008 17.7216C8.55559 17.8038 8.62983 17.8712 8.71691 17.9178C8.80399 17.9644 8.90123 17.9887 9 17.9887C9.09877 17.9887 9.19601 17.9644 9.28309 17.9178C9.37017 17.8712 9.44441 17.8038 9.4992 17.7216L9 17.3892ZM11.4 13.7916V13.1916C11.3013 13.1915 11.2041 13.2158 11.117 13.2623C11.0299 13.3087 10.9557 13.376 10.9008 13.458L11.4 13.7916ZM6.1008 14.124L8.5008 17.7216L9.4992 17.0556L7.0992 13.458L6.1008 14.124ZM9.4992 17.7216L11.8992 14.124L10.9008 13.458L8.5008 17.0556L9.4992 17.7216ZM11.4 14.3916H16.2V13.1916H11.4V14.3916ZM16.2 14.3916C17.1948 14.3916 18 13.5876 18 12.5916H16.8C16.8 12.924 16.5324 13.1916 16.2 13.1916V14.3916ZM18 12.5916V1.8H16.8V12.5928H18V12.5916ZM18 1.8C18 0.804 17.1948 0 16.2 0V1.2C16.5324 1.2 16.8 1.4676 16.8 1.8H18ZM16.2 0H1.8V1.2H16.2V0ZM1.8 0C0.8052 0 0 0.804 0 1.8H1.2C1.2 1.4676 1.4676 1.2 1.8 1.2V0ZM0 1.8V12.5916H1.2V1.8H0ZM0 12.5916C0 13.5876 0.8052 14.3916 1.8 14.3916V13.1916C1.72116 13.1918 1.64307 13.1763 1.5702 13.1462C1.49734 13.1162 1.43113 13.072 1.37538 13.0162C1.31964 12.9605 1.27545 12.8943 1.24535 12.8214C1.21525 12.7485 1.19984 12.6704 1.2 12.5916H0ZM1.8 14.3916H6.6V13.1916H1.8V14.3916ZM6 9.6H12V8.4H6V9.6ZM4.8 6H13.2V4.8H4.8V6Z" fill="black"/>
</g>
<defs>
<clipPath id="clip0_22_3837">
<rect width="18" height="18" fill="white"/>
</clipPath>
</defs>
</svg>
