<svg width="14" height="14" viewBox="0 0 14 14" fill="none" xmlns="http://www.w3.org/2000/svg">
<g clip-path="url(#clip0_22_3856)">
<path d="M5.13333 10.7268L5.5216 10.4673C5.47892 10.4035 5.42115 10.3512 5.35343 10.3151C5.2857 10.2789 5.2101 10.2601 5.13333 10.2601V10.7268ZM7 13.5249L6.61173 13.7835C6.65435 13.8474 6.71209 13.8998 6.77982 13.936C6.84755 13.9723 6.92318 13.9912 7 13.9912C7.07682 13.9912 7.15245 13.9723 7.22018 13.936C7.28791 13.8998 7.34565 13.8474 7.38827 13.7835L7 13.5249ZM8.86667 10.7268V10.2601C8.7899 10.2601 8.7143 10.2789 8.64657 10.3151C8.57885 10.3512 8.52108 10.4035 8.4784 10.4673L8.86667 10.7268ZM4.74507 10.9853L6.61173 13.7835L7.38827 13.2655L5.5216 10.4673L4.74507 10.9853ZM7.38827 13.7835L9.25493 10.9853L8.4784 10.4673L6.61173 13.2655L7.38827 13.7835ZM8.86667 11.1935H12.6V10.2601H8.86667V11.1935ZM12.6 11.1935C13.3737 11.1935 14 10.5681 14 9.79347H13.0667C13.0667 10.052 12.8585 10.2601 12.6 10.2601V11.1935ZM14 9.79347V1.4H13.0667V9.7944H14V9.79347ZM14 1.4C14 0.625333 13.3737 0 12.6 0V0.933333C12.8585 0.933333 13.0667 1.14147 13.0667 1.4H14ZM12.6 0H1.4V0.933333H12.6V0ZM1.4 0C0.626267 0 0 0.625333 0 1.4H0.933333C0.933333 1.14147 1.14147 0.933333 1.4 0.933333V0ZM0 1.4V9.79347H0.933333V1.4H0ZM0 9.79347C0 10.5681 0.626267 11.1935 1.4 11.1935V10.2601C1.33868 10.2603 1.27794 10.2483 1.22127 10.2249C1.16459 10.2015 1.1131 10.1671 1.06974 10.1237C1.02638 10.0804 0.992014 10.0289 0.968606 9.9722C0.945197 9.91552 0.93321 9.85478 0.933333 9.79347H0ZM1.4 11.1935H5.13333V10.2601H1.4V11.1935ZM4.66667 7.46667H9.33333V6.53333H4.66667V7.46667ZM3.73333 4.66667H10.2667V3.73333H3.73333V4.66667Z" fill="black"/>
</g>
<defs>
<clipPath id="clip0_22_3856">
<rect width="14" height="14" fill="white"/>
</clipPath>
</defs>
</svg>
