<svg width="18" height="18" viewBox="0 0 18 18" fill="none" xmlns="http://www.w3.org/2000/svg">
<path d="M14.4 6.3C14.4 6.6078 14.3694 6.9093 14.31 7.2H14.9985C15.6618 7.2 16.2 7.7382 16.2 8.4015V11.7C16.2001 12.5517 15.9584 13.3859 15.5032 14.1057C15.048 14.8255 14.3979 15.4013 13.6283 15.7663C12.8588 16.1312 12.0016 16.2703 11.1561 16.1674C10.3107 16.0645 9.51185 15.7237 8.85239 15.1848L7.96859 16.0686C7.88409 16.153 7.76953 16.2003 7.65012 16.2003C7.53071 16.2002 7.41622 16.1527 7.33184 16.0682C7.24746 15.9837 7.2001 15.8691 7.20019 15.7497C7.20027 15.6303 7.24779 15.5158 7.33229 15.4314L8.21609 14.5476C7.91773 14.1834 7.67841 13.7746 7.50689 13.3362C6.83829 13.5223 6.13569 13.5513 5.45403 13.4208C4.77238 13.2904 4.13014 13.004 3.57753 12.5841C3.02492 12.1642 2.57692 11.6222 2.26856 11.0005C1.96019 10.3787 1.79982 9.69403 1.79999 9V5.7015C1.79987 5.54376 1.83084 5.38754 1.89112 5.24178C1.9514 5.09601 2.03982 4.96355 2.15132 4.85197C2.26282 4.74039 2.39521 4.65187 2.54093 4.59148C2.68665 4.53109 2.84285 4.5 3.00059 4.5H5.77349C6.12397 3.69723 6.70108 3.01418 7.43406 2.53458C8.16705 2.05499 9.02404 1.79969 9.89999 1.8H13.1985C13.8618 1.8 14.4 2.3382 14.4 3.0015V6.3ZM6.76799 4.5243C7.58977 4.61026 8.37206 4.92064 9.02925 5.42146C9.68643 5.92228 10.1932 6.59425 10.494 7.3638C10.8867 7.2549 11.2924 7.19979 11.7 7.2H13.3866C13.4604 6.912 13.5 6.6105 13.5 6.3V3.0015C13.5 2.96191 13.4922 2.9227 13.477 2.88612C13.4619 2.84954 13.4397 2.81631 13.4117 2.78831C13.3837 2.76031 13.3504 2.73811 13.3139 2.72295C13.2773 2.7078 13.2381 2.7 13.1985 2.7H9.89999C9.26322 2.69984 8.63781 2.86862 8.08758 3.18911C7.53735 3.5096 7.08199 3.97034 6.76799 4.5243ZM9.49229 14.544C10.0244 14.9571 10.6618 15.2127 11.332 15.2815C12.0022 15.3504 12.6782 15.2298 13.2832 14.9336C13.8883 14.6373 14.3981 14.1772 14.7546 13.6055C15.1111 13.0339 15.3001 12.3737 15.3 11.7V8.4015C15.3 8.32154 15.2682 8.24485 15.2117 8.18831C15.1551 8.13177 15.0785 8.1 14.9985 8.1H11.7C11.0263 8.09993 10.3661 8.28889 9.79447 8.64541C9.22284 9.00193 8.76272 9.5117 8.46643 10.1167C8.17015 10.7218 8.04958 11.3978 8.11845 12.068C8.18731 12.7382 8.44285 13.3756 8.85599 13.9077L11.8314 10.9314C11.9159 10.8469 12.0305 10.7994 12.15 10.7994C12.2695 10.7994 12.3841 10.8469 12.4686 10.9314C12.5531 11.0159 12.6006 11.1305 12.6006 11.25C12.6006 11.3695 12.5531 11.4841 12.4686 11.5686L9.49229 14.544ZM7.19999 11.7C7.19999 11.3409 7.24229 10.9926 7.32149 10.6578L5.08139 8.4186C5.03955 8.37676 5.00636 8.32709 4.98372 8.27243C4.96107 8.21776 4.94942 8.15917 4.94942 8.1C4.94942 8.04083 4.96107 7.98224 4.98372 7.92758C5.00636 7.87291 5.03955 7.82324 5.08139 7.7814C5.16589 7.69691 5.28049 7.64944 5.39999 7.64944C5.45916 7.64944 5.51775 7.66109 5.57241 7.68373C5.62708 7.70638 5.67675 7.73956 5.71859 7.7814L7.65719 9.7209C8.08693 8.84644 8.78775 8.13425 9.65519 7.6905C9.39142 7.01539 8.93006 6.43559 8.33144 6.02692C7.73282 5.61826 7.0248 5.39976 6.29999 5.4H3.00149C2.92153 5.4 2.84484 5.43177 2.7883 5.48831C2.73175 5.54485 2.69999 5.62154 2.69999 5.7015V9C2.6999 9.55522 2.82824 10.1029 3.07497 10.6003C3.32169 11.0977 3.68012 11.5313 4.12222 11.8671C4.56432 12.203 5.07812 12.4321 5.62344 12.5364C6.16876 12.6407 6.73082 12.6175 7.26569 12.4686C7.22197 12.2147 7.19999 11.9576 7.19999 11.7Z" fill="black"/>
</svg>
