<svg width="18" height="18" viewBox="0 0 18 18" fill="none" xmlns="http://www.w3.org/2000/svg">
<path d="M14.4 6.29999C14.4 6.60779 14.3694 6.90929 14.31 7.19999H14.9985C15.6618 7.19999 16.2 7.73819 16.2 8.40149V11.7C16.2001 12.5517 15.9584 13.3859 15.5032 14.1057C15.048 14.8255 14.3979 15.4013 13.6283 15.7663C12.8588 16.1312 12.0016 16.2703 11.1561 16.1674C10.3107 16.0645 9.51185 15.7237 8.85239 15.1848L7.96859 16.0686C7.88409 16.153 7.76953 16.2003 7.65012 16.2002C7.53071 16.2002 7.41622 16.1526 7.33184 16.0681C7.24746 15.9836 7.2001 15.8691 7.20019 15.7497C7.20027 15.6303 7.24779 15.5158 7.33229 15.4314L8.21609 14.5476C7.91773 14.1834 7.67841 13.7746 7.50689 13.3362C6.83829 13.5223 6.13569 13.5513 5.45403 13.4208C4.77238 13.2904 4.13014 13.004 3.57753 12.5841C3.02492 12.1642 2.57692 11.6222 2.26856 11.0004C1.96019 10.3787 1.79982 9.69402 1.79999 8.99999V5.70149C1.79987 5.54375 1.83084 5.38753 1.89112 5.24176C1.9514 5.09599 2.03982 4.96354 2.15132 4.85195C2.26282 4.74037 2.39521 4.65186 2.54093 4.59146C2.68665 4.53107 2.84285 4.49999 3.00059 4.49999H5.77349C6.12397 3.69722 6.70108 3.01416 7.43406 2.53457C8.16705 2.05497 9.02404 1.79968 9.89999 1.79999H13.1985C13.8618 1.79999 14.4 2.33819 14.4 3.00149V6.29999ZM6.76799 4.52429C7.58977 4.61024 8.37206 4.92062 9.02925 5.42144C9.68643 5.92227 10.1932 6.59423 10.494 7.36379C10.8867 7.25488 11.2924 7.19978 11.7 7.19999H13.3866C13.4604 6.91199 13.5 6.61049 13.5 6.29999V3.00149C13.5 2.96189 13.4922 2.92269 13.477 2.88611C13.4619 2.84953 13.4397 2.81629 13.4117 2.7883C13.3837 2.7603 13.3504 2.73809 13.3139 2.72294C13.2773 2.70779 13.2381 2.69999 13.1985 2.69999H9.89999C9.26322 2.69982 8.63781 2.8686 8.08758 3.1891C7.53735 3.50959 7.08199 3.97033 6.76799 4.52429ZM9.49229 14.544C10.0244 14.9571 10.6618 15.2127 11.332 15.2815C12.0022 15.3504 12.6782 15.2298 13.2832 14.9335C13.8883 14.6373 14.3981 14.1771 14.7546 13.6055C15.1111 13.0339 15.3001 12.3737 15.3 11.7V8.40149C15.3 8.32153 15.2682 8.24484 15.2117 8.18829C15.1551 8.13175 15.0785 8.09999 14.9985 8.09999H11.7C11.0263 8.09991 10.3661 8.28888 9.79447 8.6454C9.22284 9.00192 8.76272 9.51168 8.46643 10.1167C8.17015 10.7218 8.04958 11.3978 8.11845 12.068C8.18731 12.7381 8.44285 13.3755 8.85599 13.9077L11.8314 10.9314C11.9159 10.8469 12.0305 10.7994 12.15 10.7994C12.2695 10.7994 12.3841 10.8469 12.4686 10.9314C12.5531 11.0159 12.6006 11.1305 12.6006 11.25C12.6006 11.3695 12.5531 11.4841 12.4686 11.5686L9.49229 14.544ZM7.19999 11.7C7.19999 11.3409 7.24229 10.9926 7.32149 10.6578L5.08139 8.41859C5.03955 8.37675 5.00636 8.32708 4.98372 8.27241C4.96107 8.21775 4.94942 8.15916 4.94942 8.09999C4.94942 8.04082 4.96107 7.98223 4.98372 7.92756C5.00636 7.8729 5.03955 7.82323 5.08139 7.78139C5.16589 7.69689 5.28049 7.64942 5.39999 7.64942C5.45916 7.64942 5.51775 7.66107 5.57241 7.68372C5.62708 7.70636 5.67675 7.73955 5.71859 7.78139L7.65719 9.72089C8.08693 8.84642 8.78775 8.13424 9.65519 7.69049C9.39142 7.01537 8.93006 6.43557 8.33144 6.02691C7.73282 5.61825 7.0248 5.39975 6.29999 5.39999H3.00149C2.92153 5.39999 2.84484 5.43175 2.7883 5.4883C2.73175 5.54484 2.69999 5.62153 2.69999 5.70149V8.99999C2.6999 9.5552 2.82824 10.1029 3.07497 10.6003C3.32169 11.0977 3.68012 11.5312 4.12222 11.8671C4.56432 12.203 5.07812 12.432 5.62344 12.5364C6.16876 12.6407 6.73082 12.6175 7.26569 12.4686C7.22197 12.2147 7.19999 11.9576 7.19999 11.7Z" fill="#3CCB5B"/>
</svg>
