<svg width="24" height="24" viewBox="0 0 24 24" fill="none" xmlns="http://www.w3.org/2000/svg">
<path d="M1.09095 11.6164C1.08362 8.91408 2.11875 6.31302 3.98087 4.35467C5.84299 2.39632 8.38863 1.23156 11.0879 1.10284C13.7872 0.974117 16.4321 1.89136 18.4721 3.66362C20.5122 5.43589 21.7901 7.92664 22.04 10.6174C21.5263 10.4786 21.0074 10.36 20.4845 10.2619C20.1748 8.22093 19.1715 6.34893 17.6435 4.96091C17.492 5.23091 17.294 5.57141 17.0675 5.93291C16.5605 6.74291 15.833 7.79291 15.1055 8.33741C15.0806 8.35454 15.0579 8.3747 15.038 8.39741C15.038 8.43791 15.053 8.54891 15.1655 8.80241C15.2135 8.91191 15.2825 9.04991 15.3605 9.20741C15.4955 9.48041 15.6635 9.81641 15.815 10.1899C15.3128 10.267 14.8166 10.3787 14.33 10.5244C14.2519 10.356 14.1709 10.1889 14.0869 10.0234C13.9833 9.8199 13.8848 9.61383 13.7915 9.40541C13.6595 9.10541 13.5155 8.71541 13.541 8.30141C13.571 7.82141 13.814 7.43141 14.2055 7.13741C14.681 6.78041 15.2795 5.96291 15.7955 5.13641C16.0445 4.74191 16.256 4.37141 16.406 4.10141L16.4405 4.03841C14.9928 3.10915 13.3082 2.61652 11.588 2.61941H11.516C11.6525 2.88941 11.8025 3.21191 11.9375 3.57041C12.3035 4.53941 12.6335 5.95841 12.044 7.21241C11.5025 8.36741 10.568 8.66741 9.86895 8.84741L9.76845 8.87291C9.08895 9.04841 8.80845 9.12041 8.60445 9.42791C8.41545 9.71591 8.44995 10.0774 8.66445 10.7779L8.71395 10.9354C8.79945 11.2084 8.90145 11.5324 8.95395 11.8384C9.01995 12.2194 9.03795 12.6964 8.79795 13.1584C8.59349 13.5712 8.26802 13.9119 7.86495 14.1349C7.55237 14.2936 7.21592 14.4 6.86895 14.4499L6.76695 14.4679C6.22995 14.5624 5.95695 14.6104 5.69445 14.8909C5.48895 15.1114 5.36145 15.4939 5.28795 16.0489C5.25795 16.2754 5.23845 16.5004 5.22045 16.7329L5.20995 16.8559C5.19358 17.123 5.159 17.3886 5.10645 17.6509L5.06895 17.8159C5.99689 18.7932 7.13228 19.5497 8.39145 20.0299C8.10945 20.4499 7.84845 20.8849 7.60545 21.3319C5.67839 20.5413 4.03002 19.1954 2.86999 17.4653C1.70996 15.7353 1.09069 13.6994 1.09095 11.6164ZM2.59095 11.6164C2.58825 13.1805 2.99525 14.718 3.77145 16.0759L3.79845 15.8509C3.87945 15.2434 4.05195 14.4514 4.59645 13.8679C5.21895 13.2019 5.98095 13.0759 6.46845 12.9964L6.60645 12.9724C6.79368 12.9508 6.9761 12.8986 7.14645 12.8179C7.28762 12.7366 7.39945 12.6126 7.46595 12.4639C7.48845 12.4234 7.51545 12.3289 7.47495 12.0964C7.42848 11.8672 7.36736 11.6413 7.29195 11.4199C7.27079 11.353 7.24979 11.286 7.22895 11.2189C7.03395 10.5814 6.72945 9.54641 7.35045 8.60291C7.89045 7.78241 8.75895 7.57391 9.32145 7.43741L9.49245 7.39541C10.088 7.24091 10.4405 7.09541 10.685 6.57491C11.0045 5.89691 10.865 4.98191 10.5335 4.09991C10.359 3.64121 10.1431 3.19938 9.88845 2.77991C7.83486 3.17552 5.98314 4.27396 4.65144 5.88652C3.31974 7.49907 2.59118 9.52505 2.59095 11.6164ZM23.4785 12.7264C23.4114 12.6175 23.3177 12.5275 23.2061 12.465C23.0945 12.4025 22.9688 12.3696 22.841 12.3694H22.829C22.77 12.3622 22.7114 12.3522 22.6535 12.3394C22.503 12.3037 22.3534 12.2642 22.205 12.2209L22.0625 12.1819C21.6452 12.0609 21.2245 11.9519 20.801 11.8549C19.3496 11.5209 17.851 11.4432 16.373 11.6254C14.57 11.8504 13.1915 12.4624 12.2509 13.3384C11.306 14.2219 10.841 15.3439 10.841 16.4884C10.841 16.7629 10.862 17.0239 10.898 17.2684C12.473 15.8944 14.4155 14.7829 16.562 13.9234C16.6535 13.8868 16.7513 13.8685 16.8498 13.8697C16.9484 13.8708 17.0457 13.8914 17.1363 13.9302C17.227 13.969 17.309 14.0252 17.3779 14.0958C17.4468 14.1663 17.5011 14.2497 17.5377 14.3412C17.5743 14.4327 17.5926 14.5305 17.5914 14.629C17.5903 14.7276 17.5697 14.8249 17.5309 14.9156C17.4921 15.0062 17.4359 15.0882 17.3653 15.1571C17.2948 15.226 17.2114 15.2803 17.12 15.3169C15.9245 15.7954 14.819 16.3474 13.823 16.9699C11.345 18.4159 9.80145 20.2729 8.67045 22.5349C8.62278 22.6233 8.59335 22.7204 8.58391 22.8204C8.57447 22.9204 8.58521 23.0213 8.61549 23.117C8.64578 23.2128 8.69499 23.3015 8.76022 23.3779C8.82544 23.4543 8.90534 23.5168 8.99518 23.5617C9.08501 23.6066 9.18296 23.633 9.2832 23.6394C9.38344 23.6457 9.48394 23.6319 9.57872 23.5986C9.67351 23.5654 9.76065 23.5135 9.83499 23.4459C9.90932 23.3784 9.96933 23.2966 10.0115 23.2054C10.5875 22.0564 11.276 21.0229 12.1835 20.1034C12.4244 20.5425 12.7181 20.9505 13.058 21.3184C13.754 22.0684 14.8775 22.8694 16.466 22.8694C17.444 22.8694 18.257 22.6204 18.923 22.1854C19.583 21.7564 20.06 21.1729 20.417 20.5609C20.969 19.6159 21.2855 18.4909 21.5195 17.6569C21.5795 17.4469 21.632 17.2564 21.683 17.0914C21.9425 16.2454 22.322 15.4864 22.673 14.8654C22.85 14.5564 23.0165 14.2849 23.1605 14.0539L23.1845 14.0149C23.3009 13.8328 23.41 13.6462 23.5115 13.4554C23.5685 13.3411 23.5954 13.2142 23.5896 13.0866C23.5838 12.959 23.5456 12.8351 23.4785 12.7264Z" fill="#3CCB5B"/>
</svg>
