<svg width="24" height="24" viewBox="0 0 24 24" fill="none" xmlns="http://www.w3.org/2000/svg">
<path d="M1.09092 11.6164C1.08359 8.91408 2.11872 6.31302 3.98084 4.35467C5.84296 2.39632 8.3886 1.23156 11.0879 1.10284C13.7871 0.974117 16.4321 1.89136 18.4721 3.66362C20.5121 5.43589 21.7901 7.92664 22.0399 10.6174C21.5263 10.4786 21.0074 10.36 20.4844 10.2619C20.1747 8.22093 19.1714 6.34893 17.6434 4.96091C17.4919 5.23091 17.2939 5.57141 17.0674 5.93291C16.5604 6.74291 15.8329 7.79291 15.1054 8.33741C15.0805 8.35454 15.0579 8.3747 15.0379 8.39741C15.0379 8.43791 15.0529 8.54891 15.1654 8.80241C15.2134 8.91191 15.2824 9.04991 15.3604 9.20741C15.4954 9.48041 15.6634 9.81641 15.8149 10.1899C15.3128 10.267 14.8166 10.3787 14.3299 10.5244C14.2519 10.356 14.1709 10.1889 14.0869 10.0234C13.9833 9.8199 13.8848 9.61383 13.7914 9.40541C13.6594 9.10541 13.5154 8.71541 13.5409 8.30141C13.5709 7.82141 13.8139 7.43141 14.2054 7.13741C14.6809 6.78041 15.2794 5.96291 15.7954 5.13641C16.0444 4.74191 16.2559 4.37141 16.4059 4.10141L16.4404 4.03841C14.9928 3.10915 13.3081 2.61652 11.5879 2.61941H11.5159C11.6524 2.88941 11.8024 3.21191 11.9374 3.57041C12.3034 4.53941 12.6334 5.95841 12.0439 7.21241C11.5024 8.36741 10.5679 8.66741 9.86892 8.84741L9.76842 8.87291C9.08892 9.04841 8.80842 9.12041 8.60442 9.42791C8.41542 9.71591 8.44992 10.0774 8.66442 10.7779L8.71392 10.9354C8.79942 11.2084 8.90142 11.5324 8.95392 11.8384C9.01992 12.2194 9.03792 12.6964 8.79792 13.1584C8.59346 13.5712 8.26799 13.9119 7.86492 14.1349C7.55234 14.2936 7.21589 14.4 6.86892 14.4499L6.76692 14.4679C6.22992 14.5624 5.95692 14.6104 5.69442 14.8909C5.48892 15.1114 5.36142 15.4939 5.28792 16.0489C5.25792 16.2754 5.23842 16.5004 5.22042 16.7329L5.20992 16.8559C5.19355 17.123 5.15897 17.3886 5.10642 17.6509L5.06892 17.8159C5.99686 18.7932 7.13225 19.5497 8.39142 20.0299C8.10942 20.4499 7.84842 20.8849 7.60542 21.3319C5.67836 20.5413 4.02999 19.1954 2.86996 17.4653C1.70993 15.7353 1.09066 13.6994 1.09092 11.6164ZM2.59092 11.6164C2.58822 13.1805 2.99522 14.718 3.77142 16.0759L3.79842 15.8509C3.87942 15.2434 4.05192 14.4514 4.59642 13.8679C5.21892 13.2019 5.98092 13.0759 6.46842 12.9964L6.60642 12.9724C6.79365 12.9508 6.97607 12.8986 7.14642 12.8179C7.28759 12.7366 7.39942 12.6126 7.46592 12.4639C7.48842 12.4234 7.51542 12.3289 7.47492 12.0964C7.42845 11.8672 7.36733 11.6413 7.29192 11.4199C7.27076 11.353 7.24976 11.286 7.22892 11.2189C7.03392 10.5814 6.72942 9.54641 7.35042 8.60291C7.89042 7.78241 8.75892 7.57391 9.32142 7.43741L9.49242 7.39541C10.0879 7.24091 10.4404 7.09541 10.6849 6.57491C11.0044 5.89691 10.8649 4.98191 10.5334 4.09991C10.359 3.64121 10.1431 3.19938 9.88842 2.77991C7.83483 3.17552 5.98311 4.27396 4.65141 5.88652C3.31971 7.49907 2.59115 9.52505 2.59092 11.6164ZM23.4784 12.7264C23.4114 12.6175 23.3177 12.5275 23.2061 12.465C23.0945 12.4025 22.9688 12.3696 22.8409 12.3694H22.8289C22.77 12.3622 22.7114 12.3522 22.6534 12.3394C22.503 12.3037 22.3534 12.2642 22.2049 12.2209L22.0624 12.1819C21.6451 12.0609 21.2245 11.9519 20.8009 11.8549C19.3496 11.5209 17.851 11.4432 16.3729 11.6254C14.5699 11.8504 13.1914 12.4624 12.2509 13.3384C11.3059 14.2219 10.8409 15.3439 10.8409 16.4884C10.8409 16.7629 10.8619 17.0239 10.8979 17.2684C12.4729 15.8944 14.4154 14.7829 16.5619 13.9234C16.6534 13.8868 16.7512 13.8685 16.8498 13.8697C16.9483 13.8708 17.0457 13.8914 17.1363 13.9302C17.2269 13.969 17.309 14.0252 17.3779 14.0958C17.4467 14.1663 17.501 14.2497 17.5377 14.3412C17.5743 14.4327 17.5926 14.5305 17.5914 14.629C17.5902 14.7276 17.5697 14.8249 17.5309 14.9156C17.4921 15.0062 17.4358 15.0882 17.3653 15.1571C17.2948 15.226 17.2114 15.2803 17.1199 15.3169C15.9244 15.7954 14.8189 16.3474 13.8229 16.9699C11.3449 18.4159 9.80142 20.2729 8.67042 22.5349C8.62275 22.6233 8.59332 22.7204 8.58388 22.8204C8.57443 22.9204 8.58518 23.0213 8.61546 23.117C8.64575 23.2128 8.69496 23.3015 8.76018 23.3779C8.82541 23.4543 8.90531 23.5168 8.99514 23.5617C9.08498 23.6066 9.18293 23.633 9.28317 23.6394C9.38341 23.6457 9.48391 23.6319 9.57869 23.5986C9.67348 23.5654 9.76062 23.5135 9.83496 23.4459C9.90929 23.3784 9.9693 23.2966 10.0114 23.2054C10.5874 22.0564 11.2759 21.0229 12.1834 20.1034C12.4243 20.5425 12.718 20.9505 13.0579 21.3184C13.7539 22.0684 14.8774 22.8694 16.4659 22.8694C17.4439 22.8694 18.2569 22.6204 18.9229 22.1854C19.5829 21.7564 20.0599 21.1729 20.4169 20.5609C20.9689 19.6159 21.2854 18.4909 21.5194 17.6569C21.5794 17.4469 21.6319 17.2564 21.6829 17.0914C21.9424 16.2454 22.3219 15.4864 22.6729 14.8654C22.8499 14.5564 23.0164 14.2849 23.1604 14.0539L23.1844 14.0149C23.3008 13.8328 23.4099 13.6462 23.5114 13.4554C23.5684 13.3411 23.5953 13.2142 23.5896 13.0866C23.5838 12.959 23.5455 12.8351 23.4784 12.7264Z" fill="black"/>
</svg>
