<svg width="16" height="16" viewBox="0 0 16 16" fill="none" xmlns="http://www.w3.org/2000/svg">
<path d="M15.3333 2.73333V1.53333L14.1333 1.4C14.0667 1.4 13.6667 1.33333 13 1.33333C10.2667 1.33333 8.26666 2.13333 7.13333 3.53333C6.26666 3 5.06666 2.66667 3.66666 2.66667C3 2.66667 2.53333 2.73333 2.53333 2.73333L1.26666 2.93333L1.33333 4.06667C1.4 6.06667 2.4 9.86667 5.86666 9.86667H6V12.1333C3.46666 12.4667 1.33333 13.3333 1.33333 13.3333V14.6667H14.6667V13.3333C14.6667 13.3333 12.5333 12.4667 10 12.1333V10C14.2 9.93333 15.3333 5.2 15.3333 2.73333ZM8 12H7.33333V8.26667C7.33333 8.26667 7.2 6 5.33333 6C5.33333 6 6.33333 6.53333 6.6 8.46667C6.33333 8.53333 6.06666 8.53333 5.86666 8.53333C2.8 8.53333 2.66666 4.06667 2.66666 4.06667C2.66666 4.06667 3.06666 4 3.66666 4C4.93333 4 7 4.26667 7.6 6.06667C7.93333 3.06667 11.3333 2.66667 13 2.66667C13.6 2.66667 14 2.73333 14 2.73333C14 2.73333 14 8.73333 9.8 8.73333H9.33333C9.33333 7.4 10.6667 5.4 10.6667 5.4C8.66666 6.06667 8.66666 8.66667 8.66666 8.66667V12H8Z" fill="#3CCB5B"/>
</svg>
