<svg width="17" height="17" viewBox="0 0 17 17" fill="none" xmlns="http://www.w3.org/2000/svg">
<path d="M8.5 2.125C5.1 2.125 2.125 4.85917 2.125 8.5C2.125 10.0017 2.64917 11.3829 3.52042 12.4738L2.125 13.8762L3.12375 14.875L4.51917 13.4796C5.64965 14.3824 7.05327 14.8744 8.5 14.875C10.1292 14.875 11.7654 14.2517 13.005 13.005C13.5987 12.4148 14.0696 11.7128 14.3906 10.9395C14.7116 10.1663 14.8762 9.33719 14.875 8.5V2.125H8.5ZM13.4583 8.5C13.4583 9.82458 12.9412 11.0712 12.0063 12.0063C11.5467 12.4679 11.0003 12.834 10.3984 13.0832C9.79663 13.3324 9.15138 13.4599 8.5 13.4583C5.76583 13.4583 3.54167 11.2342 3.54167 8.5C3.54167 7.15417 4.06583 5.89333 5.02917 4.96542C5.95241 4.05068 7.20034 3.53877 8.5 3.54167H13.4583V8.5Z" fill="#3CCB5B"/>
<path d="M5.99249 8.94625L8.86124 9.22958L7.13291 11.5883C7.05499 11.7017 7.06207 11.8575 7.16124 11.9567C7.26749 12.0629 7.44457 12.07 7.55791 11.9638L11.2129 8.68417C11.4467 8.47167 11.3192 8.08208 11.0004 8.05375L8.13166 7.77042L9.85999 5.41167C9.93791 5.29833 9.93082 5.1425 9.83166 5.04333C9.77918 4.99128 9.70864 4.96149 9.63474 4.96017C9.56084 4.95885 9.48929 4.98611 9.43499 5.03625L5.77999 8.31583C5.55332 8.52833 5.68082 8.91792 5.99249 8.94625Z" fill="#3CCB5B"/>
</svg>
