<svg width="17" height="17" viewBox="0 0 17 17" fill="none" xmlns="http://www.w3.org/2000/svg">
<g clip-path="url(#clip0_25_3199)">
<path d="M12.75 5.3125C13.2197 5.3125 13.6701 5.12593 14.0022 4.79384C14.3343 4.46174 14.5209 4.01132 14.5209 3.54167C14.5209 3.07201 14.3343 2.6216 14.0022 2.2895C13.6701 1.95741 13.2197 1.77084 12.75 1.77084C12.2804 1.77084 11.8299 1.95741 11.4979 2.2895C11.1658 2.6216 10.9792 3.07201 10.9792 3.54167C10.9792 4.01132 11.1658 4.46174 11.4979 4.79384C11.8299 5.12593 12.2804 5.3125 12.75 5.3125Z" stroke="#3CCB5B" stroke-width="1.66667"/>
<path d="M4.25001 5.93938L7.0844 4.95763L10.9792 6.81665L7.0844 9.71975L10.9792 12.2839L8.50284 15.5826M12.5092 7.66523L13.459 8.18196L15.5833 6.18588M5.96736 11.1722L4.91549 12.5577L1.41809 14.5198" stroke="#3CCB5B" stroke-width="1.66667" stroke-linecap="round" stroke-linejoin="round"/>
</g>
<defs>
<clipPath id="clip0_25_3199">
<rect width="17" height="17" fill="white"/>
</clipPath>
</defs>
</svg>
