<svg width="31" height="23" viewBox="0 0 31 23" fill="none" xmlns="http://www.w3.org/2000/svg">
<path d="M1.63383 0.00777565C1.12567 0.0890812 0.670626 0.368922 0.368794 0.785737C0.0669629 1.20255 -0.0569273 1.7222 0.0243783 2.23036C0.105684 2.73852 0.385525 3.19357 0.80234 3.4954C1.21915 3.79723 1.7388 3.92112 2.24696 3.83981H7.99502L8.3399 4.79782L9.91103 9.58787L11.4822 14.3779C11.6355 14.8761 12.2869 15.3359 12.7851 15.3359H26.1972C26.7337 15.3359 27.3468 14.8761 27.5001 14.3779L30.604 4.79782C30.7573 4.29966 30.5274 3.83981 29.9909 3.83981H12.9767L11.5205 1.08075C11.3654 0.764064 11.1259 0.496324 10.8284 0.30701C10.5309 0.117696 10.187 0.0141503 9.83439 0.00777565L2.17032 0.00777565C2.05559 -0.00259188 1.94016 -0.00259188 1.82544 0.00777565C1.74886 0.00317306 1.67209 0.00317306 1.59551 0.00777565L1.63383 0.00777565ZM13.7431 19.168C12.6701 19.168 11.8271 20.011 11.8271 21.084C11.8271 22.157 12.6701 23 13.7431 23C14.816 23 15.6591 22.157 15.6591 21.084C15.6591 20.011 14.816 19.168 13.7431 19.168ZM25.2392 19.168C24.1662 19.168 23.3232 20.011 23.3232 21.084C23.3232 22.157 24.1662 23 25.2392 23C26.3122 23 27.1552 22.157 27.1552 21.084C27.1552 20.011 26.3122 19.168 25.2392 19.168Z" fill="black"/>
</svg>
