<svg width="24" height="24" viewBox="0 0 24 24" fill="none" xmlns="http://www.w3.org/2000/svg">
<path d="M15.2985 0.00910334C14.6482 0.077553 14.0322 0.522476 13.6899 1.17275C13.245 2.06259 9.95943 8.66799 9.30916 9.31826C8.65889 9.96854 7.80327 10.2766 6.84497 10.2766V23.9665H18.8237C19.5424 23.9665 20.1584 23.5216 20.4322 22.9055C20.4322 22.9055 23.9574 12.9461 23.9574 11.9878C23.9574 11.0295 23.2045 10.2766 22.2462 10.2766H17.1124C16.1541 10.2766 15.4012 9.42094 15.4012 8.56532C15.4012 7.7097 16.736 3.15779 17.0098 2.26794C17.2836 1.3781 16.8386 0.419802 15.9488 0.111778C15.7092 0.0433282 15.5381 -0.0251215 15.2985 0.00910334ZM0 10.2766V23.9665H3.42249V10.2766H0Z" fill="black"/>
</svg>
