<svg width="26" height="26" viewBox="0 0 26 26" fill="none" xmlns="http://www.w3.org/2000/svg">
<g id="system-uicons:list">
<g id="Group">
<path id="Vector" d="M19.1905 13H10.5238M19.1905 17.9524H10.5238M19.1905 8.04761H10.5238" stroke="#3CCB5B" stroke-linecap="round" stroke-linejoin="round"/>
<path id="Vector_2" fill-rule="evenodd" clip-rule="evenodd" d="M6.8083 9.2857C7.42735 9.2857 8.04639 8.66665 8.04639 8.0476C8.04639 7.42856 7.42735 6.80951 6.8083 6.80951C6.18925 6.80951 5.57144 7.42856 5.57144 8.0476C5.57144 8.66665 6.18925 9.2857 6.8083 9.2857ZM6.8083 14.2381C7.42735 14.2381 8.04639 13.619 8.04639 13C8.04639 12.3809 7.42735 11.7619 6.8083 11.7619C6.18925 11.7619 5.57144 12.3809 5.57144 13C5.57144 13.619 6.18925 14.2381 6.8083 14.2381ZM6.8083 19.1905C7.42735 19.1905 8.04639 18.5714 8.04639 17.9524C8.04639 17.3333 7.42735 16.7143 6.8083 16.7143C6.18925 16.7143 5.57144 17.3333 5.57144 17.9524C5.57144 18.5714 6.18925 19.1905 6.8083 19.1905Z" fill="#3CCB5B"/>
</g>
</g>
</svg>
