<svg width="13" height="13" viewBox="0 0 13 13" fill="none" xmlns="http://www.w3.org/2000/svg">
<path d="M10.6167 11.375L7.20417 7.9625C6.93333 8.17917 6.62188 8.35069 6.26979 8.47708C5.91771 8.60347 5.54306 8.66667 5.14583 8.66667C4.16181 8.66667 3.32908 8.32578 2.64767 7.644C1.96625 6.96222 1.62536 6.1295 1.625 5.14583C1.625 4.16181 1.96589 3.32908 2.64767 2.64767C3.32944 1.96625 4.16217 1.62536 5.14583 1.625C6.12986 1.625 6.96258 1.96589 7.644 2.64767C8.32542 3.32944 8.66631 4.16217 8.66667 5.14583C8.66667 5.54306 8.60347 5.91771 8.47708 6.26979C8.35069 6.62188 8.17917 6.93333 7.9625 7.20417L11.375 10.6167L10.6167 11.375ZM5.14583 7.58333C5.82292 7.58333 6.39853 7.34626 6.87267 6.87213C7.34681 6.39799 7.58369 5.82256 7.58333 5.14583C7.58333 4.46875 7.34626 3.89314 6.87213 3.419C6.39799 2.94486 5.82256 2.70797 5.14583 2.70833C4.46875 2.70833 3.89314 2.9454 3.419 3.41954C2.94486 3.89368 2.70797 4.46911 2.70833 5.14583C2.70833 5.82292 2.9454 6.39853 3.41954 6.87267C3.89368 7.34681 4.46911 7.58369 5.14583 7.58333Z" fill="black"/>
</svg>
