<svg width="19" height="19" viewBox="0 0 19 19" fill="none" xmlns="http://www.w3.org/2000/svg">
<g id="solar:map-point-outline" clip-path="url(#clip0_34_883)">
<path id="Vector" fill-rule="evenodd" clip-rule="evenodd" d="M0 9.04029C0 5.16192 3.09146 2 6.92708 2C10.7627 2 13.8542 5.16192 13.8542 9.04029C13.8542 10.9126 13.3206 12.9234 12.3769 14.6603C11.4348 16.3949 10.0589 17.9022 8.33625 18.7073C7.89514 18.9137 7.41409 19.0207 6.92708 19.0207C6.44008 19.0207 5.95902 18.9137 5.51792 18.7073C3.79525 17.9022 2.41933 16.3957 1.47725 14.6603C0.533583 12.9234 0 10.9126 0 9.04029ZM6.92708 3.1875C3.76675 3.1875 1.1875 5.79762 1.1875 9.04029C1.1875 10.7004 1.66487 12.5173 2.52067 14.0935C3.37725 15.6713 4.5885 16.9625 6.01983 17.6315C6.30366 17.7644 6.61326 17.8334 6.92669 17.8334C7.24012 17.8334 7.54972 17.7644 7.83354 17.6315C9.26567 16.9625 10.4769 15.6713 11.3335 14.0935C12.1893 12.5181 12.6667 10.7004 12.6667 9.04029C12.6667 5.79762 10.0874 3.1875 6.92708 3.1875ZM6.92708 7.14583C6.69317 7.14583 6.46154 7.19191 6.24543 7.28142C6.02932 7.37094 5.83295 7.50215 5.66755 7.66755C5.50214 7.83295 5.37094 8.02932 5.28142 8.24543C5.19191 8.46154 5.14583 8.69317 5.14583 8.92708C5.14583 9.161 5.19191 9.39263 5.28142 9.60874C5.37094 9.82485 5.50214 10.0212 5.66755 10.1866C5.83295 10.352 6.02932 10.4832 6.24543 10.5727C6.46154 10.6623 6.69317 10.7083 6.92708 10.7083C7.3995 10.7083 7.85257 10.5207 8.18662 10.1866C8.52067 9.85257 8.70833 9.3995 8.70833 8.92708C8.70833 8.45467 8.52067 8.0016 8.18662 7.66755C7.85257 7.3335 7.3995 7.14583 6.92708 7.14583ZM3.95833 8.92708C3.95833 8.13972 4.27111 7.38461 4.82786 6.82786C5.38461 6.27111 6.13972 5.95833 6.92708 5.95833C7.71444 5.95833 8.46956 6.27111 9.02631 6.82786C9.58305 7.38461 9.89583 8.13972 9.89583 8.92708C9.89583 9.71445 9.58305 10.4696 9.02631 11.0263C8.46956 11.5831 7.71444 11.8958 6.92708 11.8958C6.13972 11.8958 5.38461 11.5831 4.82786 11.0263C4.27111 10.4696 3.95833 9.71445 3.95833 8.92708Z" fill="#3CCB5B"/>
</g>
<defs>
<clipPath id="clip0_34_883">
<rect width="19" height="19" fill="white"/>
</clipPath>
</defs>
</svg>
