<svg width="26" height="26" viewBox="0 0 26 26" fill="none" xmlns="http://www.w3.org/2000/svg">
<path d="M20.5834 15.1667C22.1975 13.585 23.8334 11.6892 23.8334 9.20833C23.8334 7.62809 23.2056 6.11256 22.0882 4.99516C20.9708 3.87775 19.4553 3.25 17.875 3.25C15.9684 3.25 14.625 3.79167 13 5.41667C11.375 3.79167 10.0317 3.25 8.12502 3.25C6.54477 3.25 5.02925 3.87775 3.91184 4.99516C2.79444 6.11256 2.16669 7.62809 2.16669 9.20833C2.16669 11.7 3.79169 13.5958 5.41669 15.1667L13 22.75L20.5834 15.1667Z" stroke="#3CCB5B" stroke-width="2" stroke-linecap="round" stroke-linejoin="round"/>
<path d="M13 5.41666L9.79336 8.62332C9.57325 8.84184 9.39856 9.10175 9.27934 9.38808C9.16013 9.67441 9.09875 9.9815 9.09875 10.2917C9.09875 10.6018 9.16013 10.9089 9.27934 11.1952C9.39856 11.4816 9.57325 11.7415 9.79336 11.96C10.6817 12.8483 12.1009 12.8808 13.0434 12.0358L15.2859 9.97749C15.848 9.46745 16.5798 9.18491 17.3388 9.18491C18.0978 9.18491 18.8296 9.46745 19.3917 9.97749L22.5984 12.8592M19.5 16.25L17.3334 14.0833M16.25 19.5L14.0834 17.3333" stroke="#3CCB5B" stroke-width="2" stroke-linecap="round" stroke-linejoin="round"/>
</svg>
