<svg width="16" height="16" viewBox="0 0 16 16" fill="none" xmlns="http://www.w3.org/2000/svg">
<path d="M0 14.8571H4.57143V16H0V14.8571ZM8.57143 15.4286C8.48583 15.4285 8.40134 15.4092 8.32419 15.3721C8.24704 15.3351 8.17921 15.2811 8.12571 15.2143L6.01143 12.5714H0V11.4286H6.28571C6.37131 11.4286 6.45581 11.4479 6.53295 11.485C6.6101 11.5221 6.67793 11.576 6.73143 11.6429L8.52971 13.8897L11.5246 9.39714C11.5753 9.32112 11.6435 9.25836 11.7235 9.21414C11.8034 9.16992 11.8929 9.14553 11.9842 9.14301C12.0756 9.1405 12.1662 9.15992 12.2485 9.19967C12.3308 9.23941 12.4023 9.29831 12.4571 9.37143L14 11.4286H16V12.5714H13.7143C13.6256 12.5714 13.5381 12.5508 13.4587 12.5111C13.3794 12.4714 13.3104 12.4138 13.2571 12.3429L12.0274 10.7029L9.04686 15.1743C8.99699 15.2491 8.93017 15.3111 8.85182 15.3551C8.77347 15.3992 8.68582 15.4242 8.596 15.428L8.57143 15.4286ZM5.14286 8V5.14286H5.71429C6.32026 5.1421 6.9012 4.90104 7.32969 4.47255C7.75819 4.04406 7.99924 3.46312 8 2.85714V1.14286H6.28571C5.70056 1.14382 5.13832 1.37039 4.716 1.77543C4.42009 1.23815 3.98554 0.790048 3.4576 0.477788C2.92966 0.165528 2.32766 0.00053656 1.71429 0H0V1.71429C0.00105864 2.62327 0.362622 3.49473 1.00537 4.13748C1.64813 4.78024 2.51958 5.1418 3.42857 5.14286H4V8H0V9.14286H8V8H5.14286ZM6.28571 2.28571H6.85714V2.85714C6.85684 3.16015 6.73634 3.45067 6.52207 3.66493C6.30781 3.87919 6.0173 3.9997 5.71429 4H5.14286V3.42857C5.14316 3.12556 5.26366 2.83505 5.47793 2.62078C5.69219 2.40652 5.9827 2.28602 6.28571 2.28571ZM3.42857 4C2.82259 3.99924 2.24165 3.75819 1.81316 3.32969C1.38467 2.9012 1.14361 2.32026 1.14286 1.71429V1.14286H1.71429C2.32026 1.14361 2.9012 1.38467 3.32969 1.81316C3.75819 2.24165 3.99924 2.82259 4 3.42857V4H3.42857Z" fill="#3CCB5B"/>
</svg>
