<svg width="24" height="24" viewBox="0 0 24 24" fill="none" xmlns="http://www.w3.org/2000/svg">
<g clip-path="url(#clip0_201_182)">
<path d="M15.48 17.184C13.5513 18.6823 11.124 19.3891 8.69236 19.1606C6.26075 18.932 4.00768 17.7853 2.39189 15.9538C0.776102 14.1224 -0.0809009 11.744 -0.00461981 9.30285C0.0716613 6.86172 1.07549 4.54145 2.80247 2.81447C4.52945 1.08748 6.84973 0.0836547 9.29086 0.0073736C11.732 -0.0689075 14.1104 0.788095 15.9419 2.40388C17.7733 4.01967 18.92 6.27275 19.1486 8.70435C19.3771 11.136 18.6703 13.5632 17.172 15.492L23.592 21.888L21.888 23.592L15.492 17.184H15.48ZM9.6 16.8C10.5455 16.8 11.4818 16.6138 12.3553 16.2519C13.2289 15.8901 14.0226 15.3597 14.6912 14.6912C15.3597 14.0226 15.8901 13.2289 16.2519 12.3553C16.6138 11.4818 16.8 10.5455 16.8 9.59999C16.8 8.65447 16.6138 7.71822 16.2519 6.84467C15.8901 5.97113 15.3597 5.1774 14.6912 4.50882C14.0226 3.84024 13.2289 3.30989 12.3553 2.94806C11.4818 2.58622 10.5455 2.39999 9.6 2.39999C7.69044 2.39999 5.85909 3.15856 4.50883 4.50882C3.15857 5.85908 2.4 7.69043 2.4 9.59999C2.4 11.5096 3.15857 13.3409 4.50883 14.6912C5.85909 16.0414 7.69044 16.8 9.6 16.8Z" fill="#3CCB5B"/>
</g>
<defs>
<clipPath id="clip0_201_182">
<rect width="24" height="24" fill="white"/>
</clipPath>
</defs>
</svg>
