<svg width="24" height="24" viewBox="0 0 24 24" fill="none" xmlns="http://www.w3.org/2000/svg">
<g clip-path="url(#clip0_17_216)">
<path d="M15.48 17.184C13.5513 18.6823 11.124 19.3891 8.69239 19.1606C6.26078 18.932 4.00771 17.7853 2.39192 15.9538C0.776132 14.1224 -0.0808704 11.744 -0.00458929 9.30285C0.0716918 6.86172 1.07552 4.54145 2.8025 2.81447C4.52948 1.08748 6.84976 0.0836547 9.29089 0.0073736C11.732 -0.0689075 14.1104 0.788095 15.9419 2.40388C17.7733 4.01967 18.9201 6.27275 19.1486 8.70435C19.3771 11.136 18.6703 13.5632 17.172 15.492L23.592 21.888L21.888 23.592L15.492 17.184H15.48ZM9.60003 16.8C10.5455 16.8 11.4818 16.6138 12.3554 16.2519C13.2289 15.8901 14.0226 15.3597 14.6912 14.6912C15.3598 14.0226 15.8901 13.2289 16.252 12.3553C16.6138 11.4818 16.8 10.5455 16.8 9.59999C16.8 8.65447 16.6138 7.71822 16.252 6.84467C15.8901 5.97113 15.3598 5.1774 14.6912 4.50882C14.0226 3.84024 13.2289 3.30989 12.3554 2.94806C11.4818 2.58622 10.5455 2.39999 9.60003 2.39999C7.69047 2.39999 5.85912 3.15856 4.50886 4.50882C3.1586 5.85908 2.40003 7.69043 2.40003 9.59999C2.40003 11.5096 3.1586 13.3409 4.50886 14.6912C5.85912 16.0414 7.69047 16.8 9.60003 16.8Z" fill="black"/>
</g>
<defs>
<clipPath id="clip0_17_216">
<rect width="24" height="24" fill="white"/>
</clipPath>
</defs>
</svg>
