<svg width="19" height="19" viewBox="0 0 19 19" fill="none" xmlns="http://www.w3.org/2000/svg">
<path d="M9.49999 0.853516C6.83962 0.853516 4.67577 3.01736 4.67577 5.67773C4.67577 8.33811 6.83962 10.502 9.49999 10.502C12.1604 10.502 14.3242 8.33811 14.3242 5.67773C14.3242 3.01736 12.1604 0.853516 9.49999 0.853516ZM9.19087 2.00862L8.75394 3.31658L10.689 3.11385L10.4966 2.46603L11.0393 2.61629V3.33498L11.8869 3.39028L11.7211 2.74531L12.1667 2.48726C13.0777 3.24904 13.6562 4.39438 13.6562 5.67773C13.6562 6.29627 13.5217 6.88271 13.2805 7.4097L12.3108 7.5738V8.74193C12.1259 8.91166 11.9259 9.06431 11.7134 9.198L11.2972 8.55052L10.4863 8.77169L10.7141 9.65438C10.3205 9.77381 9.91135 9.83434 9.49999 9.83398C8.34912 9.83398 7.30917 9.36882 6.55733 8.61583L7.29803 8.51371L7.79567 7.53691L6.21065 6.74448L7.33488 5.78609L6.35816 4.97525L5.36018 5.30787C5.47566 3.99241 6.20082 2.85482 7.25254 2.17888L7.46391 3.86943L9.19087 2.00862ZM10.6337 4.39167L9.29144 5.25172L10.4643 6.29423L11.3114 6.04664L11.2332 7.0631L12.784 6.67215L12.1975 5.34297L11.2593 5.356L12.0933 4.63927L10.6337 4.39167H10.6337ZM9.23937 5.89026L8.5226 6.20298L9.03082 6.5809L9.23937 5.89026ZM7.55602 6.0073L7.05845 6.59697L8.43696 7.56582L7.55602 6.0073ZM9.77367 6.33331L9.26546 7.28468L10.4904 8.11868L10.0603 7.50615L10.5946 6.86761L9.77367 6.33331ZM2.23286 7.34992C1.90563 7.34484 1.57072 7.76157 1.56879 8.82992C1.5659 10.4684 1.40714 10.9309 2.1654 12.784C2.72141 14.1428 2.97074 15.1873 4.74999 16.0312C4.96077 16.7743 4.87665 16.949 4.73366 17.5839C4.60022 18.1767 5.97397 18.2856 6.98004 17.7863C8.05959 17.1974 7.96901 15.5761 7.77615 14.4767C7.55186 13.1981 6.84619 12.9324 6.23451 12.3863C5.59939 11.478 5.45158 9.83265 4.4215 9.16891C4.20638 9.03031 3.10894 8.88959 4.61677 12.655C2.62878 12.1627 2.9909 9.88026 2.84713 8.19041C2.80431 7.68717 2.52157 7.35434 2.23286 7.34988V7.34992ZM16.7671 7.34992C16.4784 7.35437 16.1957 7.68717 16.1528 8.19045C16.0091 9.88026 16.3712 12.1627 14.3832 12.655C15.8911 8.88955 14.7936 9.03031 14.5785 9.16891C13.5484 9.83265 13.4006 11.478 12.7655 12.3863C12.1538 12.9324 11.4481 13.1981 11.2238 14.4767C11.031 15.5761 10.9404 17.1974 12.0199 17.7863C13.026 18.2856 14.3998 18.1767 14.2663 17.5839C14.1233 16.949 14.0392 16.7743 14.25 16.0312C16.0292 15.1873 16.2786 14.1428 16.8346 12.784C17.5928 10.9309 17.4341 10.4684 17.4312 8.82995C17.4293 7.76157 17.0943 7.34484 16.7671 7.34992Z" fill="#3CCB5B"/>
</svg>
