<svg width="18" height="18" viewBox="0 0 18 18" fill="none" xmlns="http://www.w3.org/2000/svg">
<path d="M1.7232 9.13781C1.3176 9.85541 0.5772 11.1658 1.8876 12.0394C2.2992 12.3118 2.7612 12.5002 3.2448 12.5938C3.6132 12.6478 3.6324 13.2154 3.1992 13.2022C2.7372 13.1782 0.4872 12.9706 0.126 11.2822C-0.0612 10.2982 0.15 9.41381 0.7308 8.45621L1.5672 6.97661L0 6.08501L4.176 3.60221V8.40221L2.6088 7.56941L1.7232 9.13781ZM6.816 1.24301C8.202 0.489413 9.0036 1.75901 9.4452 2.45141L10.4124 3.96701L8.8932 4.93661L13.176 7.18541L12.9396 2.35421L11.4228 3.32261L10.5108 1.89581C9.8844 1.00061 9.426 0.339413 8.3088 0.0418134C6.3444 -0.333787 5.1372 1.94501 5.1492 1.93061C4.9524 2.27501 5.4084 2.57861 5.6904 2.18261C6 1.79861 6.3828 1.47941 6.816 1.24301ZM14.7288 8.66741C14.6232 8.43941 14.07 8.49821 14.226 8.98781C14.3832 9.45581 14.4468 9.94781 14.4144 10.4398C14.3028 12.0142 12.7968 12.0022 11.976 12.0022H10.176V10.2022L5.976 12.6022L10.1616 15.0322L10.1676 13.2022H11.976C13.044 13.2202 13.896 12.991 14.616 12.3466C16.056 11.0734 14.7288 8.66741 14.7288 8.66741Z" fill="#3CCB5B"/>
</svg>
