<svg width="18" height="18" viewBox="0 0 18 18" fill="none" xmlns="http://www.w3.org/2000/svg">
<path d="M13.3875 2.7H4.38751C3.45553 2.7 2.70001 3.45552 2.70001 4.3875V13.3875C2.70001 14.3195 3.45553 15.075 4.38751 15.075H13.3875C14.3195 15.075 15.075 14.3195 15.075 13.3875V4.3875C15.075 3.45552 14.3195 2.7 13.3875 2.7Z" stroke="#3CCB5B" stroke-width="1.25" stroke-linejoin="round"/>
<path d="M12.0857 5.39999H5.91428C5.63025 5.39999 5.39999 5.63025 5.39999 5.91428V12.0857C5.39999 12.3697 5.63025 12.6 5.91428 12.6H12.0857C12.3697 12.6 12.6 12.3697 12.6 12.0857V5.91428C12.6 5.63025 12.3697 5.39999 12.0857 5.39999Z" stroke="#3CCB5B" stroke-width="1.25" stroke-linejoin="round"/>
<path d="M9.11249 2.925V1.8M11.925 2.925V1.8M6.29999 2.925V1.8M9.11249 16.425V15.3M11.925 16.425V15.3M6.29999 16.425V15.3M15.3 9.1125H16.425M15.3 11.925H16.425M15.3 6.3H16.425M1.79999 9.1125H2.92499M1.79999 11.925H2.92499M1.79999 6.3H2.92499" stroke="#3CCB5B" stroke-width="1.25" stroke-linecap="round" stroke-linejoin="round"/>
</svg>
