<svg width="27" height="27" viewBox="0 0 27 27" fill="none" xmlns="http://www.w3.org/2000/svg">
<path d="M6.27749 6.27755C6.51479 6.04054 6.83647 5.90742 7.17186 5.90742C7.50725 5.90742 7.82893 6.04054 8.06624 6.27755L13.5 11.7113L18.9337 6.27755C19.0884 6.11095 19.2852 5.98917 19.5033 5.92502C19.7214 5.86087 19.9528 5.85673 20.173 5.91305C20.3933 5.96937 20.5943 6.08405 20.7548 6.24502C20.9154 6.40598 21.0296 6.60727 21.0853 6.82768C21.1417 7.04769 21.1378 7.27883 21.0739 7.49679C21.0101 7.71475 20.8887 7.91149 20.7225 8.0663L15.2887 13.5001L20.7225 18.9338C20.8891 19.0885 21.0109 19.2853 21.075 19.5034C21.1392 19.7215 21.1433 19.9529 21.087 20.1731C21.0307 20.3934 20.916 20.5944 20.755 20.7549C20.5941 20.9155 20.3928 21.0296 20.1724 21.0854C19.9524 21.1418 19.7212 21.1378 19.5032 21.074C19.2853 21.0101 19.0886 20.8887 18.9337 20.7226L13.5 15.2888L8.06624 20.7226C7.82617 20.946 7.50883 21.0677 7.18092 21.062C6.85301 21.0563 6.54007 20.9238 6.30786 20.6922C6.07626 20.46 5.9437 20.147 5.93804 19.8191C5.93237 19.4912 6.05405 19.1739 6.27749 18.9338L11.7112 13.5001L6.27749 8.0663C6.04047 7.829 5.90735 7.50732 5.90735 7.17193C5.90735 6.83654 6.04047 6.51486 6.27749 6.27755Z" fill="black"/>
</svg>
